# xmcd
#
# Track frame offsets:
#	150
#	13434
#	30679
#	45896
#	57281
#	73287
#	89750
#	109567
#	120182
#	137029
#	155387
#	176039
#	196659
#
# Disc length: 2779 seconds
#
# Revision: 1
# Processed by: cddbd v1.5.1PL0 Copyright (c) Steve Scherf et al.
# Submitted via: audiograbber 1.83.01
#
DISCID=ac0ad90d
DTITLE=Stephen Barry Band - Bluesville
DYEAR=2004
DGENRE=Blues
TTITLE0=Would You Babe
TTITLE1=Loving Cup
TTITLE2=Crosscut Saw
TTITLE3=Dimples
TTITLE4=Hound Dog
TTITLE5=She's All Right
TTITLE6=If You Live
TTITLE7=I ain't Gonna Cry No More
TTITLE8=It's Gonna Work Out Fine
TTITLE9=Corrina
TTITLE10=Every Night About This Time
TTITLE11=There Was Time
TTITLE12=Bluesville
EXTD=
EXTT0=
EXTT1=
EXTT2=
EXTT3=
EXTT4=
EXTT5=
EXTT6=
EXTT7=
EXTT8=
EXTT9=
EXTT10=
EXTT11=
EXTT12=
PLAYORDER=
